<svg xmlns="http://www.w3.org/2000/svg" xmlns:xlink="http://www.w3.org/1999/xlink" version="1.1" width="256" height="256" viewBox="0 0 256 256" xml:space="preserve">

<defs>
</defs>
<g style="stroke: none; stroke-width: 0; stroke-dasharray: none; stroke-linecap: butt; stroke-linejoin: miter; stroke-miterlimit: 10; fill: none; fill-rule: nonzero; opacity: 1;" transform="translate(1.4065934065934016 1.4065934065934016) scale(2.81 2.81)" >
	<path d="M 87.342 84.325 H 2.658 c -0.96 0 -1.819 -0.496 -2.299 -1.328 c -0.48 -0.831 -0.48 -1.824 0 -2.655 L 42.7 7.003 l 0 0 c 0.48 -0.832 1.34 -1.328 2.3 -1.328 s 1.819 0.496 2.3 1.328 l 42.342 73.339 c 0.479 0.831 0.48 1.823 0 2.655 C 89.162 83.829 88.302 84.325 87.342 84.325 z" style="stroke: none; stroke-width: 1; stroke-dasharray: none; stroke-linecap: butt; stroke-linejoin: miter; stroke-miterlimit: 10; fill: rgb(255,0,0); fill-rule: nonzero; opacity: 1;" transform=" matrix(1 0 0 1 0 0) " stroke-linecap="round" />
	<path d="M 39.966 79.518 c -0.112 0 -0.225 -0.019 -0.335 -0.058 c -0.435 -0.154 -0.707 -0.587 -0.66 -1.046 L 40.54 63.28 l -7.498 1.445 c -0.394 0.074 -0.796 -0.093 -1.02 -0.426 s -0.226 -0.769 -0.006 -1.104 l 15.125 -23.092 c 0.254 -0.387 0.737 -0.549 1.172 -0.395 c 0.435 0.155 0.707 0.586 0.66 1.045 l -1.568 15.134 l 7.497 -1.445 c 0.396 -0.074 0.796 0.092 1.021 0.426 c 0.224 0.333 0.226 0.769 0.006 1.104 L 40.803 79.065 C 40.614 79.354 40.296 79.518 39.966 79.518 z" style="stroke: none; stroke-width: 1; stroke-dasharray: none; stroke-linecap: butt; stroke-linejoin: miter; stroke-miterlimit: 10; fill: rgb(255,255,255); fill-rule: nonzero; opacity: 1;" transform=" matrix(1 0 0 1 0 0) " stroke-linecap="round" />
	<path d="M 73.736 76.801 H 52.848 c -0.553 0 -1 -0.447 -1 -1 s 0.447 -1 1 -1 h 20.889 c 0.341 0 0.511 -0.229 0.567 -0.327 c 0.057 -0.099 0.171 -0.36 0 -0.656 L 45.567 24.045 c -0.17 -0.296 -0.454 -0.328 -0.567 -0.328 s -0.397 0.032 -0.567 0.328 L 15.696 73.817 c -0.171 0.296 -0.057 0.557 0 0.655 c 0.057 0.099 0.226 0.328 0.567 0.328 h 13.425 c 0.552 0 1 0.447 1 1 s -0.448 1 -1 1 H 16.264 c -0.96 0 -1.82 -0.496 -2.3 -1.328 c -0.48 -0.831 -0.48 -1.824 0 -2.655 L 42.7 23.045 c 0.48 -0.832 1.34 -1.328 2.3 -1.328 s 1.819 0.496 2.3 1.328 l 28.736 49.772 c 0.479 0.832 0.479 1.824 -0.001 2.656 C 75.556 76.305 74.696 76.801 73.736 76.801 z" style="stroke: none; stroke-width: 1; stroke-dasharray: none; stroke-linecap: butt; stroke-linejoin: miter; stroke-miterlimit: 10; fill: rgb(255,255,255); fill-rule: nonzero; opacity: 1;" transform=" matrix(1 0 0 1 0 0) " stroke-linecap="round" />
</g>
</svg>