<?xml version="1.0" encoding="UTF-8"?>
<!DOCTYPE svg PUBLIC "-//W3C//DTD SVG 1.1//EN" "http://www.w3.org/Graphics/SVG/1.1/DTD/svg11.dtd">
<svg xmlns="http://www.w3.org/2000/svg" version="1.1" width="151px" height="148px" style="shape-rendering:geometricPrecision; text-rendering:geometricPrecision; image-rendering:optimizeQuality; fill-rule:evenodd; clip-rule:evenodd" xmlns:xlink="http://www.w3.org/1999/xlink">
<g><path style="opacity:1" fill="#fdfdfc" d="M -0.5,-0.5 C 49.8333,-0.5 100.167,-0.5 150.5,-0.5C 150.5,48.8333 150.5,98.1667 150.5,147.5C 100.167,147.5 49.8333,147.5 -0.5,147.5C -0.5,98.1667 -0.5,48.8333 -0.5,-0.5 Z"/></g>
<g><path style="opacity:1" fill="#3d7dbc" d="M 88.5,14.5 C 79.8333,14.5 71.1667,14.5 62.5,14.5C 64.2528,12.7775 66.2528,11.2775 68.5,10C 64.8678,8.34102 61.2012,6.67435 57.5,5C 58.6667,4.83333 59.8333,4.66667 61,4.5C 65.785,5.69039 70.6183,6.69039 75.5,7.5C 81.4425,5.89874 87.4425,5.0654 93.5,5C 89.5,6.66667 85.5,8.33333 81.5,10C 83.8981,11.5242 86.2314,13.0242 88.5,14.5 Z"/></g>
<g><path style="opacity:1" fill="#a5a58b" d="M 112.5,21.5 C 111.021,24.0456 109.521,24.0456 108,21.5C 107.61,24.1042 106.776,26.4375 105.5,28.5C 104.078,27.075 102.411,26.075 100.5,25.5C 99.7375,24.7321 98.7375,24.2321 97.5,24C 98.2614,19.6417 99.4281,19.4751 101,23.5C 102.113,22.2396 102.28,21.073 101.5,20C 99.9556,18.8129 98.2889,18.4795 96.5,19C 97.5348,20.5069 97.3681,22.0069 96,23.5C 95.3034,20.3084 93.47,18.3084 90.5,17.5C 90.3068,21.449 89.8068,21.449 89,17.5C 86.6016,16.9003 83.9349,16.9003 81,17.5C 80.3162,18.7839 80.4829,19.9505 81.5,21C 84.0968,21.281 86.4301,21.4477 88.5,21.5C 80.6771,22.1667 73.0104,22.8334 65.5,23.5C 62.8127,23.6641 60.146,23.4974 57.5,23C 58.9348,20.7328 58.6015,18.7328 56.5,17C 57.8333,16.3333 59.1667,16.3333 60.5,17C 59.4238,18.7261 59.2571,20.5594 60,22.5C 63.3333,21.8333 66.6667,21.1667 70,20.5C 72.7092,21.197 75.3759,21.5303 78,21.5C 78.2362,19.7002 77.7362,18.0335 76.5,16.5C 75.7492,17.376 75.2492,18.376 75,19.5C 73.513,18.7471 73.3463,17.9138 74.5,17C 73.8333,16.3333 73.1667,16.3333 72.5,17C 72.3601,18.2639 72.3601,19.4305 72.5,20.5C 70.8888,19.6798 70.2222,18.3464 70.5,16.5C 76.1145,15.4781 83.7811,15.1448 93.5,15.5C 95.5914,15.3184 97.5914,15.6518 99.5,16.5C 103.741,12.315 108.408,11.6483 113.5,14.5C 112.263,15.2807 111.263,16.2807 110.5,17.5C 111.63,18.6223 112.297,19.9557 112.5,21.5 Z"/></g>
<g><path style="opacity:1" fill="#92937d" d="M 62.5,14.5 C 71.1667,14.5 79.8333,14.5 88.5,14.5C 90.4147,14.2155 92.0813,14.5489 93.5,15.5C 83.7811,15.1448 76.1145,15.4781 70.5,16.5C 70.2222,18.3464 70.8888,19.6798 72.5,20.5C 72.3601,19.4305 72.3601,18.2639 72.5,17C 73.1667,16.3333 73.8333,16.3333 74.5,17C 73.3463,17.9138 73.513,18.7471 75,19.5C 75.2492,18.376 75.7492,17.376 76.5,16.5C 77.7362,18.0335 78.2362,19.7002 78,21.5C 75.3759,21.5303 72.7092,21.197 70,20.5C 66.6667,21.1667 63.3333,21.8333 60,22.5C 59.2571,20.5594 59.4238,18.7261 60.5,17C 59.1667,16.3333 57.8333,16.3333 56.5,17C 58.6015,18.7328 58.9348,20.7328 57.5,23C 60.146,23.4974 62.8127,23.6641 65.5,23.5C 64.4324,24.4345 63.099,24.7678 61.5,24.5C 56.7732,24.779 52.1065,25.4456 47.5,26.5C 47.5,24.8333 47.5,23.1667 47.5,21.5C 45.076,21.8076 42.7427,21.4742 40.5,20.5C 41.3128,19.1861 42.3128,18.0195 43.5,17C 40.3113,16.0192 39.978,14.6859 42.5,13C 46.8672,12.3441 50.7006,13.5108 54,16.5C 56.7236,15.3132 59.5569,14.6465 62.5,14.5 Z"/></g>
<g><path style="opacity:1" fill="#80806e" d="M 100.5,25.5 C 96.4543,25.0479 92.4543,24.3813 88.5,23.5C 80.8333,23.5 73.1667,23.5 65.5,23.5C 73.0104,22.8334 80.6771,22.1667 88.5,21.5C 86.4301,21.4477 84.0968,21.281 81.5,21C 80.4829,19.9505 80.3162,18.7839 81,17.5C 83.9349,16.9003 86.6016,16.9003 89,17.5C 89.8068,21.449 90.3068,21.449 90.5,17.5C 93.47,18.3084 95.3034,20.3084 96,23.5C 97.3681,22.0069 97.5348,20.5069 96.5,19C 98.2889,18.4795 99.9556,18.8129 101.5,20C 102.28,21.073 102.113,22.2396 101,23.5C 99.4281,19.4751 98.2614,19.6417 97.5,24C 98.7375,24.2321 99.7375,24.7321 100.5,25.5 Z"/></g>
<g><path style="opacity:1" fill="#d0a43b" d="M 44.5,29.5 C 46.113,32.7397 48.7796,34.2397 52.5,34C 50.3475,36.8242 47.6808,37.3242 44.5,35.5C 41.9697,34.2243 39.3031,34.2243 36.5,35.5C 31.9588,31.0765 30.1255,32.0765 31,38.5C 32.9263,40.5389 35.093,42.2055 37.5,43.5C 42.1254,45.1283 45.4587,48.1283 47.5,52.5C 48.8664,56.613 48.533,60.613 46.5,64.5C 44.8809,68.774 42.2142,72.1074 38.5,74.5C 44.2113,68.669 46.3779,61.669 45,53.5C 40.4643,48.3877 35.4643,43.721 30,39.5C 29.3333,37.1667 29.3333,34.8333 30,32.5C 31.0113,31.6634 32.1779,31.33 33.5,31.5C 33.6602,29.8008 33.4935,28.1341 33,26.5C 32.2486,29.0495 30.582,30.7161 28,31.5C 26.627,33.6954 26.2937,36.0288 27,38.5C 30.5667,44.7358 34.9,50.4025 40,55.5C 42.2744,60.8593 41.6077,65.8593 38,70.5C 35.3318,74.3341 32.1652,77.6675 28.5,80.5C 28.4486,78.4305 29.1153,76.5971 30.5,75C 30.2645,74.1268 29.9312,73.2935 29.5,72.5C 31.0116,71.7506 32.0116,70.584 32.5,69C 32.8144,66.8429 32.8144,64.6762 32.5,62.5C 28.9495,59.1834 25.9495,55.3501 23.5,51C 22.1667,50.3333 20.8333,50.3333 19.5,51C 20.7111,52.1131 20.7111,53.2798 19.5,54.5C 22.3892,54.8762 24.3892,56.3762 25.5,59C 24.8333,59.3333 24.1667,59.6667 23.5,60C 25.7961,60.9761 27.7961,62.4761 29.5,64.5C 29.6495,65.552 29.4828,66.552 29,67.5C 23.4029,66.6086 20.9029,63.2753 21.5,57.5C 17.1757,57.8423 15.1757,55.8423 15.5,51.5C 15.8333,50.1667 16.1667,48.8333 16.5,47.5C 18.6179,48.9459 20.9512,49.6126 23.5,49.5C 23.6715,47.5082 23.0049,45.8415 21.5,44.5C 21.8333,43.8333 22.1667,43.1667 22.5,42.5C 21.5,41.1667 20.5,39.8333 19.5,38.5C 21.6557,36.2134 21.9891,33.7134 20.5,31C 23.288,30.2736 24.788,28.4402 25,25.5C 25.3333,25.8333 25.6667,26.1667 26,26.5C 26.9234,25.2412 27.7568,23.9079 28.5,22.5C 29.1667,22.8333 29.8333,23.1667 30.5,23.5C 31.2494,21.9884 32.416,20.9884 34,20.5C 35.6667,21.5 37.3333,22.5 39,23.5C 39.772,23.3552 40.4387,23.0219 41,22.5C 42.0317,24.9944 43.1983,27.3277 44.5,29.5 Z"/></g>
<g><path style="opacity:1" fill="#f9f5ef" d="M 65.5,23.5 C 73.1667,23.5 80.8333,23.5 88.5,23.5C 95.25,30.9971 99.9166,39.6638 102.5,49.5C 100.858,56.0788 101.525,62.4121 104.5,68.5C 104.737,69.791 104.404,70.791 103.5,71.5C 101.735,70.5386 99.7354,70.2053 97.5,70.5C 97.3481,62.8482 94.0148,57.0149 87.5,53C 88.6394,51.2196 89.6394,49.3863 90.5,47.5C 93.6074,47.6488 96.6074,47.1488 99.5,46C 98.8742,45.2496 98.3742,44.4162 98,43.5C 95.2344,44.7318 92.401,45.7318 89.5,46.5C 87.5,47.1667 85.5,47.8333 83.5,48.5C 82.4937,48.0623 82.4937,47.3957 83.5,46.5C 82.0047,46.5852 81.0047,45.9185 80.5,44.5C 82.5055,40.4866 85.0055,36.8199 88,33.5C 88.4828,32.552 88.6495,31.552 88.5,30.5C 87.325,30.281 86.325,30.6143 85.5,31.5C 83.3333,35.8333 81.1667,40.1667 79,44.5C 79.8223,39.1547 80.989,33.8214 82.5,28.5C 81.5,28.5 80.5,28.5 79.5,28.5C 78.6708,33.1538 77.8375,37.8204 77,42.5C 76.5007,37.5111 76.3341,32.5111 76.5,27.5C 75.5,27.5 74.5,27.5 73.5,27.5C 74.4625,31.796 74.6292,36.1294 74,40.5C 73.0806,36.1299 72.0806,31.7966 71,27.5C 70.0754,28.0465 69.2421,28.7132 68.5,29.5C 70.617,34.0009 71.7837,38.6676 72,43.5C 71.6174,42.944 71.1174,42.6107 70.5,42.5C 70.631,43.2389 70.4643,43.9056 70,44.5C 66.9002,40.6441 63.5669,36.9774 60,33.5C 58.7705,34.2752 58.4372,35.2752 59,36.5C 62.4646,38.9626 65.6312,41.7959 68.5,45C 64.2018,43.6794 60.2018,41.5127 56.5,38.5C 55.5,38.8333 54.8333,39.5 54.5,40.5C 59.2941,42.7308 63.9607,45.2308 68.5,48C 67.8333,48.3333 67.1667,48.6667 66.5,49C 67.756,49.4169 68.4226,50.2502 68.5,51.5C 65.7287,52.7734 64.062,51.7734 63.5,48.5C 64.2389,48.631 64.9056,48.4643 65.5,48C 61.4942,46.4992 57.4942,44.9992 53.5,43.5C 52.269,44.6507 52.269,45.8173 53.5,47C 56.2066,47.3951 58.8733,47.8951 61.5,48.5C 60.1204,50.719 60.4537,52.719 62.5,54.5C 57.1708,58.4917 54.5042,63.825 54.5,70.5C 52.1667,70.5 49.8333,70.5 47.5,70.5C 47.7947,68.2646 47.4614,66.2646 46.5,64.5C 48.533,60.613 48.8664,56.613 47.5,52.5C 50.526,42.4478 55.1927,33.1145 61.5,24.5C 63.099,24.7678 64.4324,24.4345 65.5,23.5 Z"/></g>
<g><path style="opacity:1" fill="#d0a43c" d="M 120.5,79.5 C 119.167,78.5 117.833,77.5 116.5,76.5C 115.158,73.8342 113.325,71.5008 111,69.5C 107.667,63.8333 107.667,58.1667 111,52.5C 115.418,48.7533 119.084,44.4199 122,39.5C 122.667,37.1667 122.667,34.8333 122,32.5C 120.291,30.8248 118.624,29.1581 117,27.5C 116.626,28.4162 116.126,29.2496 115.5,30C 119.914,30.7479 121.414,33.2479 120,37.5C 115.686,42.1445 111.02,46.4778 106,50.5C 103.702,54.2176 103.035,58.2176 104,62.5C 105.604,66.0482 107.437,69.3816 109.5,72.5C 107.846,71.2497 106.179,69.9163 104.5,68.5C 101.525,62.4121 100.858,56.0788 102.5,49.5C 105.484,46.6742 108.817,44.3409 112.5,42.5C 117.399,40.9294 119.399,37.5961 118.5,32.5C 115.564,33.4058 112.564,34.0725 109.5,34.5C 106.327,34.4012 103.327,35.0678 100.5,36.5C 96.2145,34.2931 96.5478,33.1265 101.5,33C 103.041,31.6288 104.375,30.1288 105.5,28.5C 106.776,26.4375 107.61,24.1042 108,21.5C 109.521,24.0456 111.021,24.0456 112.5,21.5C 114.042,20.6993 115.708,20.366 117.5,20.5C 117.281,21.675 117.614,22.675 118.5,23.5C 119.451,22.6744 120.451,22.5078 121.5,23C 123.5,25.8529 125.833,28.3529 128.5,30.5C 127.017,33.4109 127.35,36.0775 129.5,38.5C 127.561,40.1222 127.228,41.9555 128.5,44C 125.527,45.2242 124.86,47.2242 126.5,50C 124.606,51.1011 123.939,52.4345 124.5,54C 122.5,55.9202 120.5,57.9202 118.5,60C 120.138,63.0571 121.471,63.0571 122.5,60C 123.449,59.3828 124.282,59.5494 125,60.5C 125.456,59.2559 124.956,58.4226 123.5,58C 125.382,55.8918 127.715,54.5585 130.5,54C 127.456,53.6411 127.122,52.9745 129.5,52C 127.122,51.0255 127.456,50.3589 130.5,50C 129.833,49.6667 129.167,49.3333 128.5,49C 130.345,47.872 132.345,47.372 134.5,47.5C 135.675,53.5501 133.342,56.5501 127.5,56.5C 128.576,62.3766 126.242,65.71 120.5,66.5C 119.756,65.0095 119.09,63.5095 118.5,62C 117.4,61.5683 116.733,62.0683 116.5,63.5C 117.552,65.2234 117.552,66.8901 116.5,68.5C 117.313,69.8139 118.313,70.9805 119.5,72C 118.978,72.5613 118.645,73.228 118.5,74C 119.856,75.5671 120.523,77.4004 120.5,79.5 Z"/></g>
<g><path style="opacity:1" fill="#bfb19d" d="M 38.5,26.5 C 42.1612,26.3501 43.1612,27.8501 41.5,31C 37.7071,31.4866 36.7071,29.9866 38.5,26.5 Z"/></g>
<g><path style="opacity:1" fill="#f6f2ec" d="M 108.5,27.5 C 109.209,26.596 110.209,26.2627 111.5,26.5C 111.5,27.8333 111.5,29.1667 111.5,30.5C 109.901,30.7678 108.568,30.4345 107.5,29.5C 109.424,29.2893 109.757,28.6226 108.5,27.5 Z"/></g>
<g><path style="opacity:1" fill="#62646a" d="M 108.5,27.5 C 109.757,28.6226 109.424,29.2893 107.5,29.5C 107.328,28.5084 107.662,27.8417 108.5,27.5 Z"/></g>
<g><path style="opacity:1" fill="#f7efe3" d="M 38.5,74.5 C 37.0956,76.2546 36.0956,78.2546 35.5,80.5C 31.4153,82.2664 28.4153,85.2664 26.5,89.5C 27.325,90.3857 28.325,90.719 29.5,90.5C 27.9724,91.3092 26.3057,91.9759 24.5,92.5C 23.6829,94.9686 23.1829,97.6353 23,100.5C 21.8874,93.007 23.7207,86.3403 28.5,80.5C 32.1652,77.6675 35.3318,74.3341 38,70.5C 41.6077,65.8593 42.2744,60.8593 40,55.5C 34.9,50.4025 30.5667,44.7358 27,38.5C 26.2937,36.0288 26.627,33.6954 28,31.5C 30.582,30.7161 32.2486,29.0495 33,26.5C 33.4935,28.1341 33.6602,29.8008 33.5,31.5C 32.1779,31.33 31.0113,31.6634 30,32.5C 29.3333,34.8333 29.3333,37.1667 30,39.5C 35.4643,43.721 40.4643,48.3877 45,53.5C 46.3779,61.669 44.2113,68.669 38.5,74.5 Z"/></g>
<g><path style="opacity:1" fill="#f7f5f0" d="M 112.5,42.5 C 111.5,39.8333 110.5,37.1667 109.5,34.5C 112.564,34.0725 115.564,33.4058 118.5,32.5C 119.399,37.5961 117.399,40.9294 112.5,42.5 Z"/></g>
<g><path style="opacity:1" fill="#f5f1e8" d="M 44.5,35.5 C 43.0222,35.238 41.6888,35.5713 40.5,36.5C 39.6876,38.9446 38.6876,41.2779 37.5,43.5C 35.093,42.2055 32.9263,40.5389 31,38.5C 30.1255,32.0765 31.9588,31.0765 36.5,35.5C 39.3031,34.2243 41.9697,34.2243 44.5,35.5 Z"/></g>
<g><path style="opacity:1" fill="#387aba" d="M 61.5,24.5 C 55.1927,33.1145 50.526,42.4478 47.5,52.5C 45.4587,48.1283 42.1254,45.1283 37.5,43.5C 38.6876,41.2779 39.6876,38.9446 40.5,36.5C 41.6888,35.5713 43.0222,35.238 44.5,35.5C 47.6808,37.3242 50.3475,36.8242 52.5,34C 48.7796,34.2397 46.113,32.7397 44.5,29.5C 45.7281,28.6935 46.7281,27.6935 47.5,26.5C 52.1065,25.4456 56.7732,24.779 61.5,24.5 Z"/></g>
<g><path style="opacity:1" fill="#3a7ab9" d="M 88.5,23.5 C 92.4543,24.3813 96.4543,25.0479 100.5,25.5C 102.411,26.075 104.078,27.075 105.5,28.5C 104.375,30.1288 103.041,31.6288 101.5,33C 96.5478,33.1265 96.2145,34.2931 100.5,36.5C 103.327,35.0678 106.327,34.4012 109.5,34.5C 110.5,37.1667 111.5,39.8333 112.5,42.5C 108.817,44.3409 105.484,46.6742 102.5,49.5C 99.9166,39.6638 95.25,30.9971 88.5,23.5 Z"/></g>
<g><path style="opacity:1" fill="#d1a53a" d="M 70.5,42.5 C 67.7324,39.1584 65.0657,35.6584 62.5,32C 63.5358,30.3831 64.7025,30.2164 66,31.5C 68.0719,34.9712 69.5719,38.6379 70.5,42.5 Z"/></g>
<g><path style="opacity:1" fill="#f9f2e8" d="M 116.5,76.5 C 115.5,76.5 114.5,76.5 113.5,76.5C 111.5,75.8333 110.167,74.5 109.5,72.5C 107.437,69.3816 105.604,66.0482 104,62.5C 103.035,58.2176 103.702,54.2176 106,50.5C 111.02,46.4778 115.686,42.1445 120,37.5C 121.414,33.2479 119.914,30.7479 115.5,30C 116.126,29.2496 116.626,28.4162 117,27.5C 118.624,29.1581 120.291,30.8248 122,32.5C 122.667,34.8333 122.667,37.1667 122,39.5C 119.084,44.4199 115.418,48.7533 111,52.5C 107.667,58.1667 107.667,63.8333 111,69.5C 113.325,71.5008 115.158,73.8342 116.5,76.5 Z"/></g>
<g><path style="opacity:1" fill="#d0a337" d="M 90.5,33.5 C 92.2252,33.8425 92.7252,34.8425 92,36.5C 89.2974,39.538 86.2974,42.2046 83,44.5C 82.3333,43.8333 82.3333,43.1667 83,42.5C 86.0884,39.9186 88.5884,36.9186 90.5,33.5 Z"/></g>
<g><path style="opacity:1" fill="#d1a43a" d="M 83.5,46.5 C 87.1872,43.5003 91.1872,40.8336 95.5,38.5C 95.8333,39 96.1667,39.5 96.5,40C 92.6772,43.2168 88.3439,45.3835 83.5,46.5 Z"/></g>
<g><path style="opacity:1" fill="#d1a640" d="M 83.5,46.5 C 82.4937,47.3957 82.4937,48.0623 83.5,48.5C 83.6495,49.552 83.4828,50.552 83,51.5C 78.1672,50.1922 73.3338,50.1922 68.5,51.5C 68.4226,50.2502 67.756,49.4169 66.5,49C 67.1667,48.6667 67.8333,48.3333 68.5,48C 63.9607,45.2308 59.2941,42.7308 54.5,40.5C 54.8333,39.5 55.5,38.8333 56.5,38.5C 60.2018,41.5127 64.2018,43.6794 68.5,45C 65.6312,41.7959 62.4646,38.9626 59,36.5C 58.4372,35.2752 58.7705,34.2752 60,33.5C 63.5669,36.9774 66.9002,40.6441 70,44.5C 70.4643,43.9056 70.631,43.2389 70.5,42.5C 71.1174,42.6107 71.6174,42.944 72,43.5C 71.7837,38.6676 70.617,34.0009 68.5,29.5C 69.2421,28.7132 70.0754,28.0465 71,27.5C 72.0806,31.7966 73.0806,36.1299 74,40.5C 74.6292,36.1294 74.4625,31.796 73.5,27.5C 74.5,27.5 75.5,27.5 76.5,27.5C 76.3341,32.5111 76.5007,37.5111 77,42.5C 77.8375,37.8204 78.6708,33.1538 79.5,28.5C 80.5,28.5 81.5,28.5 82.5,28.5C 80.989,33.8214 79.8223,39.1547 79,44.5C 81.1667,40.1667 83.3333,35.8333 85.5,31.5C 86.325,30.6143 87.325,30.281 88.5,30.5C 88.6495,31.552 88.4828,32.552 88,33.5C 85.0055,36.8199 82.5055,40.4866 80.5,44.5C 81.0047,45.9185 82.0047,46.5852 83.5,46.5 Z"/></g>
<g><path style="opacity:1" fill="#d0a53b" d="M 63.5,48.5 C 62.8333,48.5 62.1667,48.5 61.5,48.5C 58.8733,47.8951 56.2066,47.3951 53.5,47C 52.269,45.8173 52.269,44.6507 53.5,43.5C 57.4942,44.9992 61.4942,46.4992 65.5,48C 64.9056,48.4643 64.2389,48.631 63.5,48.5 Z"/></g>
<g><path style="opacity:1" fill="#d0a335" d="M 90.5,47.5 C 89.8333,47.5 89.5,47.1667 89.5,46.5C 92.401,45.7318 95.2344,44.7318 98,43.5C 98.3742,44.4162 98.8742,45.2496 99.5,46C 96.6074,47.1488 93.6074,47.6488 90.5,47.5 Z"/></g>
<g><path style="opacity:1" fill="#b69869" d="M 89.5,46.5 C 89.5,47.1667 89.8333,47.5 90.5,47.5C 89.6394,49.3863 88.6394,51.2196 87.5,53C 94.0148,57.0149 97.3481,62.8482 97.5,70.5C 99.7354,70.2053 101.735,70.5386 103.5,71.5C 103.5,72.1667 103.5,72.8333 103.5,73.5C 101.533,73.2606 99.6995,73.5939 98,74.5C 96.528,80.7471 94.028,86.4138 90.5,91.5C 90.5,91.8333 90.5,92.1667 90.5,92.5C 89.609,93.1098 88.609,93.4431 87.5,93.5C 87.6309,92.6236 87.2975,91.9569 86.5,91.5C 80.4312,93.7157 74.2645,94.0491 68,92.5C 66.9614,93.2438 66.4614,94.2438 66.5,95.5C 64.901,95.7678 63.5676,95.4345 62.5,94.5C 62.5,94.1667 62.5,93.8333 62.5,93.5C 63.2674,92.828 63.9341,91.9947 64.5,91C 58.5819,87.0737 55.0819,81.5737 54,74.5C 52.3005,73.5939 50.4672,73.2606 48.5,73.5C 47.596,72.791 47.2627,71.791 47.5,70.5C 49.8333,70.5 52.1667,70.5 54.5,70.5C 54.5042,63.825 57.1708,58.4917 62.5,54.5C 60.4537,52.719 60.1204,50.719 61.5,48.5C 62.1667,48.5 62.8333,48.5 63.5,48.5C 64.062,51.7734 65.7287,52.7734 68.5,51.5C 73.3338,50.1922 78.1672,50.1922 83,51.5C 83.4828,50.552 83.6495,49.552 83.5,48.5C 85.5,47.8333 87.5,47.1667 89.5,46.5 Z"/></g>
<g><path style="opacity:1" fill="#f1e3c8" d="M 32.5,62.5 C 30.9731,62.427 29.9731,63.0937 29.5,64.5C 27.7961,62.4761 25.7961,60.9761 23.5,60C 24.1667,59.6667 24.8333,59.3333 25.5,59C 24.3892,56.3762 22.3892,54.8762 19.5,54.5C 20.7111,53.2798 20.7111,52.1131 19.5,51C 20.8333,50.3333 22.1667,50.3333 23.5,51C 25.9495,55.3501 28.9495,59.1834 32.5,62.5 Z"/></g>
<g><path style="opacity:1" fill="#faf9f6" d="M 69.5,55.5 C 73.5,55.5 77.5,55.5 81.5,55.5C 78.5373,66.9782 74.204,67.4782 68.5,57C 69.056,56.6174 69.3893,56.1174 69.5,55.5 Z"/></g>
<g><path style="opacity:1" fill="#faf9f6" d="M 84.5,58.5 C 89.248,60.5947 92.248,64.2614 93.5,69.5C 82.5715,71.9327 79.5715,68.266 84.5,58.5 Z"/></g>
<g><path style="opacity:1" fill="#faf9f6" d="M 63.5,59.5 C 66.3851,60.545 68.5518,62.545 70,65.5C 70.3334,67.0468 69.8334,68.3801 68.5,69.5C 65.1667,70.8333 61.8333,70.8333 58.5,69.5C 59.8008,65.8959 61.4675,62.5626 63.5,59.5 Z"/></g>
<g><path style="opacity:1" fill="#397bbc" d="M 46.5,64.5 C 47.4614,66.2646 47.7947,68.2646 47.5,70.5C 47.2627,71.791 47.596,72.791 48.5,73.5C 48.3227,77.2343 48.6561,80.9009 49.5,84.5C 45.346,82.2739 41.0127,81.9405 36.5,83.5C 35.8902,82.609 35.5569,81.609 35.5,80.5C 36.0956,78.2546 37.0956,76.2546 38.5,74.5C 42.2142,72.1074 44.8809,68.774 46.5,64.5 Z"/></g>
<g><path style="opacity:1" fill="#3778b7" d="M 104.5,68.5 C 106.179,69.9163 107.846,71.2497 109.5,72.5C 110.167,74.5 111.5,75.8333 113.5,76.5C 114.167,77.8333 114.833,79.1667 115.5,80.5C 115.672,81.4916 115.338,82.1583 114.5,82.5C 110.4,82.2367 106.4,82.5701 102.5,83.5C 102.833,80.1667 103.167,76.8333 103.5,73.5C 103.5,72.8333 103.5,72.1667 103.5,71.5C 104.404,70.791 104.737,69.791 104.5,68.5 Z"/></g>
<g><path style="opacity:1" fill="#f6f6f5" d="M 48.5,73.5 C 50.4672,73.2606 52.3005,73.5939 54,74.5C 55.0819,81.5737 58.5819,87.0737 64.5,91C 63.9341,91.9947 63.2674,92.828 62.5,93.5C 62.1667,93.5 61.8333,93.5 61.5,93.5C 59.8185,91.9925 57.8185,90.9925 55.5,90.5C 53.1667,88.8333 51.1667,86.8333 49.5,84.5C 48.6561,80.9009 48.3227,77.2343 48.5,73.5 Z"/></g>
<g><path style="opacity:1" fill="#f9f6f3" d="M 58.5,73.5 C 61.8984,73.1796 65.2317,73.513 68.5,74.5C 70.8423,77.9105 70.5089,81.2438 67.5,84.5C 65.1567,85.7253 63.3234,85.0586 62,82.5C 60.7286,79.5156 59.562,76.5156 58.5,73.5 Z"/></g>
<g><path style="opacity:1" fill="#f8f5f1" d="M 83.5,73.5 C 86.8333,73.5 90.1667,73.5 93.5,73.5C 92.7983,77.9055 90.7983,81.5721 87.5,84.5C 83.5817,81.6816 82.2483,78.0149 83.5,73.5 Z"/></g>
<g><path style="opacity:1" fill="#f6f5f4" d="M 103.5,73.5 C 103.167,76.8333 102.833,80.1667 102.5,83.5C 99.2981,87.3693 95.2981,90.036 90.5,91.5C 94.028,86.4138 96.528,80.7471 98,74.5C 99.6995,73.5939 101.533,73.2606 103.5,73.5 Z"/></g>
<g><path style="opacity:1" fill="#faf8f6" d="M 73.5,79.5 C 75.604,79.2011 77.604,79.5344 79.5,80.5C 80.8333,82.5 82.1667,84.5 83.5,86.5C 79.1594,90.1556 74.8261,90.3222 70.5,87C 71.6513,84.5351 72.6513,82.0351 73.5,79.5 Z"/></g>
<g><path style="opacity:1" fill="#fdfcfb" d="M 35.5,80.5 C 35.5569,81.609 35.8902,82.609 36.5,83.5C 36.7317,88.2427 34.3984,90.5761 29.5,90.5C 28.325,90.719 27.325,90.3857 26.5,89.5C 28.4153,85.2664 31.4153,82.2664 35.5,80.5 Z"/></g>
<g><path style="opacity:1" fill="#f4f2f1" d="M 115.5,80.5 C 119.55,83.2256 122.55,86.8922 124.5,91.5C 117.884,91.8763 114.551,88.8763 114.5,82.5C 115.338,82.1583 115.672,81.4916 115.5,80.5 Z"/></g>
<g><path style="opacity:1" fill="#d2a63f" d="M 120.5,79.5 C 121.5,79.5 122.5,79.5 123.5,79.5C 123.5,80.8333 123.5,82.1667 123.5,83.5C 122.026,82.5637 121.026,81.2303 120.5,79.5 Z"/></g>
<g><path style="opacity:1" fill="#343233" d="M 49.5,84.5 C 51.1667,86.8333 53.1667,88.8333 55.5,90.5C 54.5,90.5 53.5,90.5 52.5,90.5C 49.0222,87.7233 45.0222,86.8899 40.5,88C 39.0577,88.3768 38.0577,89.2101 37.5,90.5C 37.5,90.8333 37.5,91.1667 37.5,91.5C 36.391,91.5569 35.391,91.8902 34.5,92.5C 32.302,92.1201 30.6354,92.7868 29.5,94.5C 27.2188,94.9227 25.5521,94.256 24.5,92.5C 26.3057,91.9759 27.9724,91.3092 29.5,90.5C 34.3984,90.5761 36.7317,88.2427 36.5,83.5C 41.0127,81.9405 45.346,82.2739 49.5,84.5 Z"/></g>
<g><path style="opacity:1" fill="#383637" d="M 114.5,82.5 C 114.551,88.8763 117.884,91.8763 124.5,91.5C 124.719,92.675 124.386,93.675 123.5,94.5C 122.264,93.7542 120.93,93.4208 119.5,93.5C 118.01,91.7202 116.01,91.0535 113.5,91.5C 113.5,90.8333 113.5,90.1667 113.5,89.5C 113.082,88.7784 112.416,88.2784 111.5,88C 105.451,86.6217 100.118,87.7883 95.5,91.5C 93.8828,92.038 92.2161,92.3713 90.5,92.5C 90.5,92.1667 90.5,91.8333 90.5,91.5C 95.2981,90.036 99.2981,87.3693 102.5,83.5C 106.4,82.5701 110.4,82.2367 114.5,82.5 Z"/></g>
<g><path style="opacity:1" fill="#ebd8b9" d="M 113.5,76.5 C 114.5,76.5 115.5,76.5 116.5,76.5C 117.833,77.5 119.167,78.5 120.5,79.5C 121.026,81.2303 122.026,82.5637 123.5,83.5C 124.11,85.4341 125.11,87.1007 126.5,88.5C 127.114,92.1352 127.448,95.8019 127.5,99.5C 126.778,99.9175 126.278,100.584 126,101.5C 125.802,99.6183 125.302,97.9516 124.5,96.5C 123.167,96.1667 121.833,95.8333 120.5,95.5C 120.167,94.8333 119.833,94.1667 119.5,93.5C 120.93,93.4208 122.264,93.7542 123.5,94.5C 124.386,93.675 124.719,92.675 124.5,91.5C 122.55,86.8922 119.55,83.2256 115.5,80.5C 114.833,79.1667 114.167,77.8333 113.5,76.5 Z"/></g>
<g><path style="opacity:1" fill="#d5ad53" d="M 123.5,83.5 C 124.5,83.5 125.5,83.5 126.5,83.5C 126.5,85.1667 126.5,86.8333 126.5,88.5C 125.11,87.1007 124.11,85.4341 123.5,83.5 Z"/></g>
<g><path style="opacity:1" fill="#e2cfd1" d="M 52.5,90.5 C 52.1667,90.5 51.8333,90.5 51.5,90.5C 46.8188,89.2376 42.1521,89.2376 37.5,90.5C 38.0577,89.2101 39.0577,88.3768 40.5,88C 45.0222,86.8899 49.0222,87.7233 52.5,90.5 Z"/></g>
<g><path style="opacity:1" fill="#ec3736" d="M 113.5,89.5 C 113.5,90.1667 113.5,90.8333 113.5,91.5C 113.828,93.2381 113.161,94.9048 111.5,96.5C 111.426,94.5891 110.426,93.4224 108.5,93C 105.247,91.9635 101.914,91.2969 98.5,91C 103.272,88.2123 108.272,87.7123 113.5,89.5 Z"/></g>
<g><path style="opacity:1" fill="#ec2d2f" d="M 51.5,90.5 C 50.1667,91.1667 48.8333,91.8333 47.5,92.5C 43.2693,92.6696 39.9359,94.3363 37.5,97.5C 37.2671,95.9382 36.6005,94.6049 35.5,93.5C 36.2389,93.631 36.9056,93.4643 37.5,93C 38.7383,92.31 38.7383,91.81 37.5,91.5C 37.5,91.1667 37.5,90.8333 37.5,90.5C 42.1521,89.2376 46.8188,89.2376 51.5,90.5 Z"/></g>
<g><path style="opacity:1" fill="#2f2e2f" d="M 20.5,92.5 C 20.5,93.5 20.5,94.5 20.5,95.5C 15.5531,97.7396 11.8864,96.4062 9.5,91.5C 9.66667,91.1667 9.83333,90.8333 10,90.5C 13.3209,91.9707 16.8209,92.6374 20.5,92.5 Z"/></g>
<g><path style="opacity:1" fill="#d1bfc1" d="M 37.5,91.5 C 38.7383,91.81 38.7383,92.31 37.5,93C 36.9056,93.4643 36.2389,93.631 35.5,93.5C 34.8333,93.5 34.5,93.1667 34.5,92.5C 35.391,91.8902 36.391,91.5569 37.5,91.5 Z"/></g>
<g><path style="opacity:1" fill="#747071" d="M 55.5,90.5 C 57.8185,90.9925 59.8185,91.9925 61.5,93.5C 58.784,93.6138 56.784,92.6138 55.5,90.5 Z"/></g>
<g><path style="opacity:1" fill="#ebd8d4" d="M 113.5,89.5 C 108.272,87.7123 103.272,88.2123 98.5,91C 101.914,91.2969 105.247,91.9635 108.5,93C 110.426,93.4224 111.426,94.5891 111.5,96.5C 112.506,97.3957 112.506,98.0623 111.5,98.5C 110.942,96.4066 109.609,94.9066 107.5,94C 102.154,93.5676 96.8202,93.7343 91.5,94.5C 93.3885,93.678 95.3885,92.8447 97.5,92C 96.9056,91.5357 96.2389,91.369 95.5,91.5C 100.118,87.7883 105.451,86.6217 111.5,88C 112.416,88.2784 113.082,88.7784 113.5,89.5 Z"/></g>
<g><path style="opacity:1" fill="#da6e6f" d="M 95.5,91.5 C 96.2389,91.369 96.9056,91.5357 97.5,92C 95.3885,92.8447 93.3885,93.678 91.5,94.5C 90.8333,94.5 90.1667,94.5 89.5,94.5C 88.5,94.5 87.5,94.5 86.5,94.5C 86.5,93.8333 86.8333,93.5 87.5,93.5C 88.609,93.4431 89.609,93.1098 90.5,92.5C 92.2161,92.3713 93.8828,92.038 95.5,91.5 Z"/></g>
<g><path style="opacity:1" fill="#f2e4e2" d="M 47.5,92.5 C 51.1224,92.322 54.4557,92.9886 57.5,94.5C 54.65,94.3639 51.8166,94.0305 49,93.5C 46.1187,94.0278 43.2854,94.6945 40.5,95.5C 40.5323,97.6188 39.5323,98.9522 37.5,99.5C 37.5,98.8333 37.5,98.1667 37.5,97.5C 39.9359,94.3363 43.2693,92.6696 47.5,92.5 Z"/></g>
<g><path style="opacity:1" fill="#e67c7b" d="M 51.5,90.5 C 51.8333,90.5 52.1667,90.5 52.5,90.5C 53.5,90.5 54.5,90.5 55.5,90.5C 56.784,92.6138 58.784,93.6138 61.5,93.5C 61.8333,93.5 62.1667,93.5 62.5,93.5C 62.5,93.8333 62.5,94.1667 62.5,94.5C 61.1667,94.5 59.8333,94.5 58.5,94.5C 58.1667,94.5 57.8333,94.5 57.5,94.5C 54.4557,92.9886 51.1224,92.322 47.5,92.5C 48.8333,91.8333 50.1667,91.1667 51.5,90.5 Z"/></g>
<g><path style="opacity:1" fill="#2a9850" d="M 111.5,98.5 C 111.366,100.292 111.699,101.958 112.5,103.5C 110.833,102.833 109.167,102.167 107.5,101.5C 104.676,98.2488 101.009,96.2488 96.5,95.5C 93.9407,95.8016 91.6074,95.4682 89.5,94.5C 90.1667,94.5 90.8333,94.5 91.5,94.5C 96.8202,93.7343 102.154,93.5676 107.5,94C 109.609,94.9066 110.942,96.4066 111.5,98.5 Z"/></g>
<g><path style="opacity:1" fill="#313030" d="M 128.5,95.5 C 128.5,94.5 128.5,93.5 128.5,92.5C 133.227,92.4764 137.893,92.3097 142.5,92C 141.257,93.1545 140.257,94.4878 139.5,96C 135.779,96.6781 132.112,96.5114 128.5,95.5 Z"/></g>
<g><path style="opacity:1" fill="#d6b272" d="M 28.5,80.5 C 23.7207,86.3403 21.8874,93.007 23,100.5C 23.1829,97.6353 23.6829,94.9686 24.5,92.5C 25.5521,94.256 27.2188,94.9227 29.5,94.5C 29.5,94.8333 29.5,95.1667 29.5,95.5C 27.9582,96.3007 26.2915,96.634 24.5,96.5C 24.5,97.5 24.5,98.5 24.5,99.5C 24.7678,101.099 24.4345,102.432 23.5,103.5C 23.1667,103.5 22.8333,103.5 22.5,103.5C 22.1249,101.302 21.4582,99.3024 20.5,97.5C 20.5,96.8333 20.5,96.1667 20.5,95.5C 20.5,94.5 20.5,93.5 20.5,92.5C 21.913,89.7814 22.5797,86.7814 22.5,83.5C 23.5,83.5 24.5,83.5 25.5,83.5C 25.5,82.5 25.5,81.5 25.5,80.5C 26.5,80.5 27.5,80.5 28.5,80.5 Z"/></g>
<g><path style="opacity:1" fill="#359b55" d="M 57.5,94.5 C 57.8333,94.5 58.1667,94.5 58.5,94.5C 59.2625,95.2679 60.2625,95.7679 61.5,96C 59.8659,96.4935 58.1992,96.6602 56.5,96.5C 52.1576,96.2779 48.4909,97.6112 45.5,100.5C 42.6223,102.105 39.6223,103.439 36.5,104.5C 37.3007,102.958 37.634,101.292 37.5,99.5C 39.5323,98.9522 40.5323,97.6188 40.5,95.5C 43.2854,94.6945 46.1187,94.0278 49,93.5C 51.8166,94.0305 54.65,94.3639 57.5,94.5 Z"/></g>
<g><path style="opacity:1" fill="#eee9e4" d="M 87.5,93.5 C 86.8333,93.5 86.5,93.8333 86.5,94.5C 79.8772,95.3796 73.2105,95.713 66.5,95.5C 66.4614,94.2438 66.9614,93.2438 68,92.5C 74.2645,94.0491 80.4312,93.7157 86.5,91.5C 87.2975,91.9569 87.6309,92.6236 87.5,93.5 Z"/></g>
<g><path style="opacity:1" fill="#d5a345" d="M 126.5,88.5 C 128.104,89.287 128.771,90.6203 128.5,92.5C 128.5,93.5 128.5,94.5 128.5,95.5C 128.5,96.1667 128.5,96.8333 128.5,97.5C 128.672,98.4916 128.338,99.1583 127.5,99.5C 127.448,95.8019 127.114,92.1352 126.5,88.5 Z"/></g>
<g><path style="opacity:1" fill="#3577b3" d="M 56.5,96.5 C 56.4142,97.4959 56.7476,98.3292 57.5,99C 53.5741,100.027 49.9074,101.527 46.5,103.5C 46.4431,102.391 46.1098,101.391 45.5,100.5C 48.4909,97.6112 52.1576,96.2779 56.5,96.5 Z"/></g>
<g><path style="opacity:1" fill="#ec3633" d="M 120.5,95.5 C 121.833,95.8333 123.167,96.1667 124.5,96.5C 125.037,100.981 123.37,102.314 119.5,100.5C 119.629,98.7839 119.962,97.1172 120.5,95.5 Z"/></g>
<g><path style="opacity:1" fill="#ed413e" d="M 20.5,97.5 C 21.4582,99.3024 22.1249,101.302 22.5,103.5C 20.5328,103.261 18.6995,103.594 17,104.5C 16.6892,102.444 16.1892,100.444 15.5,98.5C 17.0453,97.5481 18.712,97.2148 20.5,97.5 Z"/></g>
<g><path style="opacity:1" fill="#ec3432" d="M 29.5,95.5 C 29.366,97.2915 29.6993,98.9582 30.5,100.5C 29.1667,100.833 27.8333,101.167 26.5,101.5C 25.8333,100.833 25.1667,100.167 24.5,99.5C 24.5,98.5 24.5,97.5 24.5,96.5C 26.2915,96.634 27.9582,96.3007 29.5,95.5 Z"/></g>
<g><path style="opacity:1" fill="#ed3737" d="M 128.5,97.5 C 131.32,97.2475 133.986,97.7475 136.5,99C 135.594,100.699 135.261,102.533 135.5,104.5C 132.733,104.142 130.067,103.475 127.5,102.5C 127.5,101.5 127.5,100.5 127.5,99.5C 128.338,99.1583 128.672,98.4916 128.5,97.5 Z"/></g>
<g><path style="opacity:1" fill="#3673a8" d="M 96.5,95.5 C 101.009,96.2488 104.676,98.2488 107.5,101.5C 107.44,102.043 107.107,102.376 106.5,102.5C 102.908,100.637 99.2409,98.9707 95.5,97.5C 95.8627,96.8165 96.1961,96.1499 96.5,95.5 Z"/></g>
<g><path style="opacity:1" fill="#bebf96" d="M 58.5,94.5 C 59.8333,94.5 61.1667,94.5 62.5,94.5C 63.5676,95.4345 64.901,95.7678 66.5,95.5C 73.2105,95.713 79.8772,95.3796 86.5,94.5C 87.5,94.5 88.5,94.5 89.5,94.5C 91.6074,95.4682 93.9407,95.8016 96.5,95.5C 96.1961,96.1499 95.8627,96.8165 95.5,97.5C 99.2409,98.9707 102.908,100.637 106.5,102.5C 107.107,102.376 107.44,102.043 107.5,101.5C 109.167,102.167 110.833,102.833 112.5,103.5C 113.984,105.074 115.651,106.407 117.5,107.5C 117.062,107.435 116.728,107.601 116.5,108C 120.802,111.612 124.135,115.945 126.5,121C 123.875,122.163 121.209,123.33 118.5,124.5C 117.702,124.957 117.369,125.624 117.5,126.5C 116.609,125.89 115.609,125.557 114.5,125.5C 112.919,123.326 111.419,120.993 110,118.5C 108.549,116.536 106.716,115.203 104.5,114.5C 102.574,112.707 100.241,111.707 97.5,111.5C 94.7635,108.968 91.4302,107.635 87.5,107.5C 80.1708,106.227 72.8374,106.227 65.5,107.5C 62.0954,108.364 58.7621,109.531 55.5,111C 56.7101,112.039 57.7101,113.206 58.5,114.5C 56.8333,114.5 55.1667,114.5 53.5,114.5C 53.3036,112.354 52.3036,112.188 50.5,114C 47.2379,116.592 44.7379,119.759 43,123.5C 41.6703,122.418 40.1703,121.751 38.5,121.5C 35.6971,120.933 33.3637,119.6 31.5,117.5C 35.2373,111.428 40.2373,106.761 46.5,103.5C 49.9074,101.527 53.5741,100.027 57.5,99C 56.7476,98.3292 56.4142,97.4959 56.5,96.5C 58.1992,96.6602 59.8659,96.4935 61.5,96C 60.2625,95.7679 59.2625,95.2679 58.5,94.5 Z"/></g>
<g><path style="opacity:1" fill="#2a984d" d="M 22.5,103.5 C 22.8333,103.5 23.1667,103.5 23.5,103.5C 24.5387,105.531 26.2054,106.864 28.5,107.5C 24.1051,109.435 19.4385,110.769 14.5,111.5C 14.3573,109.738 14.6906,108.071 15.5,106.5C 17.875,105.34 20.2083,104.34 22.5,103.5 Z"/></g>
<g><path style="opacity:1" fill="#2a984e" d="M 126.5,104.5 C 129.833,104.833 133.167,105.167 136.5,105.5C 136.665,107.827 137.331,109.993 138.5,112C 132.509,111.586 126.842,110.086 121.5,107.5C 122.965,106.263 124.632,105.263 126.5,104.5 Z"/></g>
<g><path style="opacity:1" fill="#cda03a" d="M 34.5,92.5 C 34.5,93.1667 34.8333,93.5 35.5,93.5C 36.6005,94.6049 37.2671,95.9382 37.5,97.5C 37.5,98.1667 37.5,98.8333 37.5,99.5C 37.634,101.292 37.3007,102.958 36.5,104.5C 34.4973,106.982 31.8306,107.982 28.5,107.5C 26.2054,106.864 24.5387,105.531 23.5,103.5C 24.4345,102.432 24.7678,101.099 24.5,99.5C 25.1667,100.167 25.8333,100.833 26.5,101.5C 26.3284,102.492 26.6618,103.158 27.5,103.5C 31.3031,106.617 33.6364,105.617 34.5,100.5C 35.3382,100.158 35.6716,99.4916 35.5,98.5C 35.3059,96.0882 33.9726,95.0882 31.5,95.5C 31.5,96.8333 31.5,98.1667 31.5,99.5C 31.5,100.167 31.1667,100.5 30.5,100.5C 29.6993,98.9582 29.366,97.2915 29.5,95.5C 29.5,95.1667 29.5,94.8333 29.5,94.5C 30.6354,92.7868 32.302,92.1201 34.5,92.5 Z"/></g>
<g><path style="opacity:1" fill="#3d984b" d="M 34.5,100.5 C 33.6364,105.617 31.3031,106.617 27.5,103.5C 29.6794,102.323 32.0128,101.323 34.5,100.5 Z"/></g>
<g><path style="opacity:1" fill="#dad3ba" d="M 35.5,98.5 C 35.6716,99.4916 35.3382,100.158 34.5,100.5C 32.0128,101.323 29.6794,102.323 27.5,103.5C 26.6618,103.158 26.3284,102.492 26.5,101.5C 27.8333,101.167 29.1667,100.833 30.5,100.5C 31.1667,100.5 31.5,100.167 31.5,99.5C 32.9587,99.5674 34.2921,99.2341 35.5,98.5 Z"/></g>
<g><path style="opacity:1" fill="#eb3c36" d="M 35.5,98.5 C 34.2921,99.2341 32.9587,99.5674 31.5,99.5C 31.5,98.1667 31.5,96.8333 31.5,95.5C 33.9726,95.0882 35.3059,96.0882 35.5,98.5 Z"/></g>
<g><path style="opacity:1" fill="#cea446" d="M 113.5,91.5 C 116.01,91.0535 118.01,91.7202 119.5,93.5C 119.833,94.1667 120.167,94.8333 120.5,95.5C 119.962,97.1172 119.629,98.7839 119.5,100.5C 123.37,102.314 125.037,100.981 124.5,96.5C 125.302,97.9516 125.802,99.6183 126,101.5C 126.278,100.584 126.778,99.9175 127.5,99.5C 127.5,100.5 127.5,101.5 127.5,102.5C 126.662,102.842 126.328,103.508 126.5,104.5C 124.632,105.263 122.965,106.263 121.5,107.5C 120.167,107.5 118.833,107.5 117.5,107.5C 115.651,106.407 113.984,105.074 112.5,103.5C 111.699,101.958 111.366,100.292 111.5,98.5C 112.506,98.0623 112.506,97.3957 111.5,96.5C 113.161,94.9048 113.828,93.2381 113.5,91.5 Z"/></g>
<g><path style="opacity:1" fill="#459b51" d="M 114.5,99.5 C 115.391,100.11 116.391,100.443 117.5,100.5C 124.148,103.042 123.815,104.209 116.5,104C 114.963,102.89 114.297,101.39 114.5,99.5 Z"/></g>
<g><path style="opacity:1" fill="#f3f1ee" d="M 114.5,99.5 C 114.5,99.1667 114.5,98.8333 114.5,98.5C 115.609,98.5569 116.609,98.8902 117.5,99.5C 117.5,99.8333 117.5,100.167 117.5,100.5C 116.391,100.443 115.391,100.11 114.5,99.5 Z"/></g>
<g><path style="opacity:1" fill="#ed3434" d="M 117.5,99.5 C 116.609,98.8902 115.609,98.5569 114.5,98.5C 114.854,94.1415 116.188,93.6415 118.5,97C 118.257,97.9021 117.923,98.7354 117.5,99.5 Z"/></g>
<g><path style="opacity:1" fill="#f7f6f7" d="M 87.5,107.5 C 80.1667,108.833 72.8333,108.833 65.5,107.5C 72.8374,106.227 80.1708,106.227 87.5,107.5 Z"/></g>
<g><path style="opacity:1" fill="#387fbf" d="M 65.5,107.5 C 72.8333,108.833 80.1667,108.833 87.5,107.5C 91.4302,107.635 94.7635,108.968 97.5,111.5C 91.3852,116.644 84.5519,120.644 77,123.5C 70.4432,121.137 64.2766,118.137 58.5,114.5C 57.7101,113.206 56.7101,112.039 55.5,111C 58.7621,109.531 62.0954,108.364 65.5,107.5 Z"/></g>
<g><path style="opacity:1" fill="#bdddf2" d="M 67.5,110.5 C 73.6529,109.347 79.9863,109.18 86.5,110C 84.0872,112.974 80.9206,114.141 77,113.5C 73.2459,113.991 70.0792,112.991 67.5,110.5 Z"/></g>
<g><path style="opacity:1" fill="#877957" d="M 53.5,114.5 C 54.3141,117.823 52.9808,120.99 49.5,124C 46.1013,125.823 42.7679,125.656 39.5,123.5C 39.1667,122.833 38.8333,122.167 38.5,121.5C 40.1703,121.751 41.6703,122.418 43,123.5C 44.7379,119.759 47.2379,116.592 50.5,114C 52.3036,112.188 53.3036,112.354 53.5,114.5 Z"/></g>
<g><path style="opacity:1" fill="#a4cbe8" d="M 72.5,115.5 C 74.9664,114.366 77.633,114.199 80.5,115C 77.9798,118.104 75.3132,118.27 72.5,115.5 Z"/></g>
<g><path style="opacity:1" fill="#847756" d="M 104.5,114.5 C 106.716,115.203 108.549,116.536 110,118.5C 111.419,120.993 112.919,123.326 114.5,125.5C 112.419,127.9 110.086,128.066 107.5,126C 105.623,123.749 104.123,121.249 103,118.5C 102.097,117.299 100.931,116.465 99.5,116C 100.094,115.536 100.761,115.369 101.5,115.5C 102.791,115.737 103.791,115.404 104.5,114.5 Z"/></g>
<g><path style="opacity:1" fill="#86a772" d="M 53.5,114.5 C 55.1667,114.5 56.8333,114.5 58.5,114.5C 58.7268,116.997 60.0602,118.664 62.5,119.5C 57.1272,121.513 52.4606,124.513 48.5,128.5C 47.5655,129.568 47.2322,130.901 47.5,132.5C 43.446,132.21 42.946,132.877 46,134.5C 46.5791,135.928 46.4124,137.262 45.5,138.5C 42.3484,139.041 39.8484,138.041 38,135.5C 36.994,131.198 37.494,127.198 39.5,123.5C 42.7679,125.656 46.1013,125.823 49.5,124C 52.9808,120.99 54.3141,117.823 53.5,114.5 Z"/></g>
<g><path style="opacity:1" fill="#8ba975" d="M 101.5,115.5 C 100.761,115.369 100.094,115.536 99.5,116C 100.931,116.465 102.097,117.299 103,118.5C 104.123,121.249 105.623,123.749 107.5,126C 110.086,128.066 112.419,127.9 114.5,125.5C 115.609,125.557 116.609,125.89 117.5,126.5C 119.357,131.466 118.691,135.966 115.5,140C 113.866,140.494 112.199,140.66 110.5,140.5C 108.874,137.879 109.541,136.046 112.5,135C 110.942,134.79 109.609,134.29 108.5,133.5C 108.731,130.215 107.397,127.715 104.5,126C 101.638,125.07 99.305,123.403 97.5,121C 89.5,120 89.5,119 97.5,118C 97.8333,117.667 98.1667,117.333 98.5,117C 97.376,116.751 96.376,116.251 95.5,115.5C 97.6365,114.207 99.6365,114.207 101.5,115.5 Z"/></g>
<g><path style="opacity:1" fill="#31994f" d="M 62.5,121.5 C 63.8734,121.343 65.2068,121.51 66.5,122C 64.2849,123.814 61.9515,124.314 59.5,123.5C 60.6016,122.824 61.6016,122.158 62.5,121.5 Z"/></g>
<g><path style="opacity:1" fill="#3f9e59" d="M 87.5,122.5 C 89.9379,121.114 92.2712,121.447 94.5,123.5C 93.8333,123.833 93.1667,124.167 92.5,124.5C 90.8228,123.813 89.1561,123.146 87.5,122.5 Z"/></g>
<g><path style="opacity:1" fill="#3c9e56" d="M 67.5,123.5 C 68.8734,123.343 70.2068,123.51 71.5,124C 69.298,126.774 66.6313,127.607 63.5,126.5C 64.9014,125.479 66.2347,124.479 67.5,123.5 Z"/></g>
<g><path style="opacity:1" fill="#2c984d" d="M 82.5,124.5 C 85.2515,123.107 87.5848,123.774 89.5,126.5C 89,126.833 88.5,127.167 88,127.5C 86.2355,126.368 84.4021,125.368 82.5,124.5 Z"/></g>
<g><path style="opacity:1" fill="#349b53" d="M 73.5,124.5 C 74.675,124.281 75.675,124.614 76.5,125.5C 74.6841,126.815 73.0175,128.315 71.5,130C 70.365,130.749 69.365,130.583 68.5,129.5C 69.8818,127.451 71.5484,125.785 73.5,124.5 Z"/></g>
<g><path style="opacity:1" fill="#2b994f" d="M 77.5,125.5 C 80.964,124.561 83.6307,125.895 85.5,129.5C 84.635,130.583 83.635,130.749 82.5,130C 80.9625,128.293 79.2959,126.793 77.5,125.5 Z"/></g>
<g><path style="opacity:1" fill="#85785b" d="M 45.5,138.5 C 46.4124,137.262 46.5791,135.928 46,134.5C 42.946,132.877 43.446,132.21 47.5,132.5C 47.2322,130.901 47.5655,129.568 48.5,128.5C 48.238,129.978 48.5713,131.311 49.5,132.5C 49.7401,127.201 51.2401,126.535 54,130.5C 54.6667,131.833 54.6667,133.167 54,134.5C 51.5786,136.697 48.7452,138.03 45.5,138.5 Z"/></g>
<g><path style="opacity:1" fill="#857556" d="M 108.5,133.5 C 109.609,134.29 110.942,134.79 112.5,135C 109.541,136.046 108.874,137.879 110.5,140.5C 104.977,139.816 102.144,136.816 102,131.5C 102.689,130.643 103.522,129.977 104.5,129.5C 105.167,131.167 105.833,132.833 106.5,134.5C 107.183,134.137 107.85,133.804 108.5,133.5 Z"/></g>
</svg>
