<?xml version="1.0" standalone="no"?>
<!DOCTYPE svg PUBLIC "-//W3C//DTD SVG 20010904//EN"
 "http://www.w3.org/TR/2001/REC-SVG-20010904/DTD/svg10.dtd">
<svg version="1.0" xmlns="http://www.w3.org/2000/svg"
 width="256.000000pt" height="100.000000pt" viewBox="0 0 256.000000 100.000000"
 preserveAspectRatio="xMidYMid meet">

<g transform="translate(0.000000,100.000000) scale(0.100000,-0.100000)"
fill="#000000" stroke="none">
<path d="M174 905 c-41 -28 -45 -59 -42 -309 l3 -238 33 -29 32 -29 380 0 380
0 32 29 33 29 3 224 c2 122 0 238 -3 257 -3 18 -18 44 -32 57 l-26 24 -386 0
c-323 0 -390 -2 -407 -15z m796 -260 l0 -245 -390 0 -390 0 0 245 0 245 390 0
390 0 0 -245z"/>
<path d="M672 628 l3 -153 100 0 100 0 3 153 3 152 -106 0 -106 0 3 -152z
m173 87 l0 -30 -70 0 c-59 0 -70 3 -73 18 -8 41 4 48 75 45 l68 -3 0 -30z
m-115 -75 c0 -5 -7 -10 -15 -10 -8 0 -15 5 -15 10 0 6 7 10 15 10 8 0 15 -4
15 -10z m40 0 c0 -5 -7 -10 -15 -10 -8 0 -15 5 -15 10 0 6 7 10 15 10 8 0 15
-4 15 -10z m40 0 c0 -5 -7 -10 -15 -10 -8 0 -15 5 -15 10 0 6 7 10 15 10 8 0
15 -4 15 -10z m35 0 c3 -5 -1 -10 -9 -10 -9 0 -16 5 -16 10 0 6 4 10 9 10 6 0
13 -4 16 -10z m-115 -40 c0 -5 -7 -10 -15 -10 -8 0 -15 5 -15 10 0 6 7 10 15
10 8 0 15 -4 15 -10z m40 0 c0 -5 -7 -10 -15 -10 -8 0 -15 5 -15 10 0 6 7 10
15 10 8 0 15 -4 15 -10z m40 0 c0 -5 -7 -10 -15 -10 -8 0 -15 5 -15 10 0 6 7
10 15 10 8 0 15 -4 15 -10z m40 0 c0 -5 -7 -10 -15 -10 -8 0 -15 5 -15 10 0 6
7 10 15 10 8 0 15 -4 15 -10z m-120 -40 c0 -5 -7 -10 -15 -10 -8 0 -15 5 -15
10 0 6 7 10 15 10 8 0 15 -4 15 -10z m40 0 c0 -5 -7 -10 -15 -10 -8 0 -15 5
-15 10 0 6 7 10 15 10 8 0 15 -4 15 -10z m40 0 c0 -5 -7 -10 -15 -10 -8 0 -15
5 -15 10 0 6 7 10 15 10 8 0 15 -4 15 -10z m35 0 c-3 -5 -10 -10 -16 -10 -5 0
-9 5 -9 10 0 6 7 10 16 10 8 0 12 -4 9 -10z m-77 -37 c2 -9 -7 -13 -27 -13
-30 0 -46 11 -34 24 11 11 56 2 61 -11z m42 -4 c0 -5 -7 -9 -15 -9 -15 0 -20
12 -9 23 8 8 24 -1 24 -14z m31 -2 c-13 -13 -26 -3 -16 12 3 6 11 8 17 5 6 -4
6 -10 -1 -17z"/>
<path d="M396 751 c-50 -33 -69 -74 -64 -137 4 -43 11 -61 33 -84 125 -130
326 35 223 183 -40 57 -134 76 -192 38z m25 -48 c-11 -21 -22 -46 -25 -55 -7
-22 -46 -24 -46 -3 0 29 30 74 58 89 15 8 28 13 30 11 2 -2 -6 -21 -17 -42z
m153 -5 c22 -31 21 -68 -2 -68 -12 0 -26 17 -42 53 -13 28 -26 56 -28 60 -9
18 58 -24 72 -45z m-114 -18 c0 -47 -1 -50 -26 -50 -23 0 -25 3 -20 26 7 25
34 74 42 74 2 0 4 -22 4 -50z m50 18 c28 -46 26 -68 -5 -68 -23 0 -25 3 -25
50 0 28 2 50 5 50 3 0 14 -15 25 -32z m-110 -95 c0 -10 9 -33 21 -52 11 -18
18 -35 15 -38 -8 -8 -43 16 -65 43 -29 37 -28 64 4 64 17 0 25 -6 25 -17z m60
-35 l-1 -53 -24 40 c-31 51 -31 65 0 65 24 0 25 -3 25 -52z m70 36 c0 -16 -37
-84 -46 -84 -2 0 -4 23 -4 50 0 47 2 50 25 50 16 0 25 -6 25 -16z m60 0 c0
-23 -19 -57 -44 -76 -39 -32 -45 -20 -18 37 17 35 33 55 45 55 9 0 17 -7 17
-16z"/>
<path d="M1100 791 c0 -5 10 -11 23 -13 20 -3 22 -8 22 -73 0 -56 3 -70 15
-70 12 0 16 16 18 73 3 64 5 72 22 72 11 0 20 5 20 10 0 6 -27 10 -60 10 -33
0 -60 -4 -60 -9z"/>
<path d="M1234 748 c3 -29 6 -68 6 -85 0 -18 5 -33 10 -33 6 0 10 17 10 39 0
40 23 72 40 55 5 -5 10 -27 12 -48 2 -22 9 -41 16 -44 10 -3 12 10 10 54 l-3
59 -37 -1 c-35 -1 -38 1 -38 27 0 20 -5 29 -16 29 -14 0 -16 -8 -10 -52z"/>
<path d="M1376 731 c-39 -43 5 -109 62 -94 32 8 27 28 -8 28 -43 0 -41 19 3
23 41 4 48 19 19 45 -25 22 -55 21 -76 -2z m48 -7 c20 -8 11 -24 -15 -24 -19
0 -25 11 -12 23 8 8 8 8 27 1z"/>
<path d="M1137 533 c-14 -37 -29 -76 -33 -85 -9 -25 18 -23 34 2 8 13 23 20
43 20 22 0 32 -5 36 -20 3 -11 13 -20 23 -20 17 0 15 8 -14 82 -18 48 -38 84
-47 86 -11 2 -23 -18 -42 -65z m58 -20 c5 -20 3 -23 -19 -23 -30 0 -30 0 -14
35 12 27 22 24 33 -12z"/>
<path d="M1620 515 c0 -67 3 -85 14 -85 10 0 16 14 18 43 2 35 7 43 26 45 20
3 22 -1 22 -42 0 -34 4 -46 15 -46 11 0 15 12 15 50 0 57 -23 80 -60 60 -18
-10 -20 -8 -20 25 0 24 -4 35 -15 35 -12 0 -15 -16 -15 -85z"/>
<path d="M1544 578 c-9 -14 -8 -100 1 -129 5 -15 14 -19 33 -17 14 2 27 9 30
16 3 9 -3 12 -14 10 -15 -2 -20 4 -22 30 -2 24 1 32 12 32 9 0 16 7 16 15 0 8
-7 15 -15 15 -8 0 -15 6 -15 14 0 20 -17 29 -26 14z"/>
<path d="M2197 583 c-12 -11 -8 -23 8 -23 8 0 15 7 15 15 0 16 -12 20 -23 8z"/>
<path d="M2330 573 c0 -11 -6 -25 -12 -31 -10 -10 -10 -15 -1 -20 6 -4 13 -25
15 -47 3 -35 6 -40 27 -40 13 0 26 6 29 13 3 9 -3 12 -14 10 -15 -2 -20 4 -22
30 -3 27 0 32 17 32 27 0 27 20 1 27 -11 3 -20 11 -20 19 0 7 -4 16 -10 19 -5
3 -10 -2 -10 -12z"/>
<path d="M1272 473 c2 -50 7 -78 16 -81 7 -2 12 6 12 22 0 23 3 25 28 20 36
-7 62 16 62 56 0 39 -39 67 -69 50 -14 -7 -21 -7 -21 0 0 5 -7 10 -15 10 -13
0 -15 -13 -13 -77z m86 16 c2 -18 -3 -29 -14 -33 -25 -9 -48 16 -39 43 10 32
49 24 53 -10z"/>
<path d="M1430 532 c-28 -22 -30 -70 -4 -89 41 -30 94 -2 94 49 0 45 -54 69
-90 40z m59 -26 c23 -28 -17 -68 -45 -45 -15 12 -19 41 -7 52 11 12 40 8 52
-7z"/>
<path d="M1772 534 c-30 -21 -31 -79 -2 -94 26 -14 72 -9 78 8 3 8 -6 12 -29
10 -17 -2 -34 2 -36 8 -2 7 12 13 37 16 34 3 44 0 52 -17 14 -26 28 -35 56
-35 13 0 22 6 22 16 0 8 -4 13 -9 10 -13 -9 -39 3 -45 21 -8 20 11 43 35 43
23 0 25 16 3 24 -18 7 -64 -18 -64 -34 0 -6 -4 -10 -10 -10 -5 0 -10 7 -10 15
0 9 -12 20 -26 25 -31 12 -25 13 -52 -6z m48 -24 c0 -5 -12 -10 -26 -10 -14 0
-23 4 -19 10 3 6 15 10 26 10 10 0 19 -4 19 -10z"/>
<path d="M1992 534 c-15 -10 -22 -25 -22 -49 0 -41 17 -53 77 -52 l41 0 0 54
c-1 52 -10 74 -23 53 -4 -7 -12 -7 -25 0 -24 13 -21 13 -48 -6z m63 -35 c14
-42 -44 -63 -59 -22 -4 9 -1 22 5 29 17 21 47 17 54 -7z"/>
<path d="M2110 489 c0 -46 3 -59 15 -59 11 0 15 12 15 45 0 39 3 45 21 45 33
0 16 22 -19 25 l-32 3 0 -59z"/>
<path d="M2258 539 c-25 -14 -22 -41 4 -58 21 -13 21 -14 3 -27 -23 -17 -11
-33 13 -18 24 16 27 43 5 60 -16 12 -16 15 -3 23 22 15 0 33 -22 20z"/>
<path d="M2190 485 c0 -42 3 -55 15 -55 12 0 15 13 15 55 0 42 -3 55 -15 55
-12 0 -15 -13 -15 -55z"/>
<path d="M1457 383 c-4 -3 -7 -42 -7 -85 0 -63 3 -78 15 -78 11 0 15 11 15 39
0 26 5 41 16 45 29 11 34 6 34 -39 0 -34 4 -45 16 -45 12 0 14 10 12 53 l-3
52 -38 0 c-35 0 -37 2 -37 33 0 30 -9 40 -23 25z"/>
<path d="M1100 370 c0 -5 12 -10 26 -10 l27 0 -5 -70 c-5 -63 -4 -70 13 -70
17 0 19 8 19 70 0 63 2 70 20 70 11 0 20 5 20 10 0 6 -27 10 -60 10 -33 0 -60
-4 -60 -10z"/>
<path d="M1240 311 c-26 -49 1 -94 53 -89 42 4 47 27 6 25 -18 -1 -34 4 -36
11 -3 8 7 12 31 12 41 0 51 12 36 40 -15 27 -75 28 -90 1z m65 -11 c4 -6 -5
-10 -20 -10 -15 0 -24 4 -20 10 3 6 12 10 20 10 8 0 17 -4 20 -10z"/>
<path d="M1362 318 c-31 -31 0 -98 46 -98 34 0 35 17 1 24 -26 5 -30 10 -27
33 2 22 9 29 31 31 15 2 27 8 27 13 0 13 -64 11 -78 -3z"/>
<path d="M1657 269 c4 -13 8 -18 11 -10 2 7 -1 18 -6 23 -8 8 -9 4 -5 -13z"/>
<path d="M1960 266 c0 -14 4 -27 8 -30 5 -3 6 8 4 25 -5 35 -12 38 -12 5z"/>
<path d="M1992 265 c0 -16 2 -22 5 -12 2 9 2 23 0 30 -3 6 -5 -1 -5 -18z"/>
<path d="M1856 263 c-6 -14 -5 -15 5 -6 7 7 10 15 7 18 -3 3 -9 -2 -12 -12z"/>
<path d="M1681 254 c0 -11 3 -14 6 -6 3 7 2 16 -1 19 -3 4 -6 -2 -5 -13z"/>
<path d="M1761 254 c0 -11 3 -14 6 -6 3 7 2 16 -1 19 -3 4 -6 -2 -5 -13z"/>
<path d="M2050 256 c0 -8 4 -17 9 -20 5 -4 7 3 4 14 -6 23 -13 26 -13 6z"/>
<path d="M2251 254 c0 -11 3 -14 6 -6 3 7 2 16 -1 19 -3 4 -6 -2 -5 -13z"/>
<path d="M2331 254 c0 -11 3 -14 6 -6 3 7 2 16 -1 19 -3 4 -6 -2 -5 -13z"/>
<path d="M447 210 l-28 -50 136 0 136 0 -28 50 -28 50 -80 0 -80 0 -28 -50z"/>
<path d="M1711 244 c0 -11 3 -14 6 -6 3 7 2 16 -1 19 -3 4 -6 -2 -5 -13z"/>
<path d="M700 230 c0 -19 7 -20 200 -20 193 0 200 1 200 20 0 19 -7 20 -200
20 -193 0 -200 -1 -200 -20z"/>
<path d="M1848 233 c7 -3 16 -2 19 1 4 3 -2 6 -13 5 -11 0 -14 -3 -6 -6z"/>
<path d="M2288 233 c7 -3 16 -2 19 1 4 3 -2 6 -13 5 -11 0 -14 -3 -6 -6z"/>
<path d="M810 155 c0 -13 35 -15 255 -15 220 0 255 2 255 15 0 13 -35 15 -255
15 -220 0 -255 -2 -255 -15z"/>
<path d="M65 140 c-16 -26 15 -30 256 -30 242 0 249 1 249 20 0 19 -7 20 -249
20 -156 0 -252 -4 -256 -10z"/>
<path d="M170 70 c0 -20 7 -20 365 -20 358 0 365 0 365 20 0 20 -7 20 -365 20
-358 0 -365 0 -365 -20z"/>
</g>
</svg>
