<?xml version="1.0" standalone="no"?>
<!DOCTYPE svg PUBLIC "-//W3C//DTD SVG 20010904//EN"
 "http://www.w3.org/TR/2001/REC-SVG-20010904/DTD/svg10.dtd">
<svg version="1.0" xmlns="http://www.w3.org/2000/svg"
 width="225.000000pt" height="225.000000pt" viewBox="0 0 225.000000 225.000000"
 preserveAspectRatio="xMidYMid meet">

<g transform="translate(0.000000,225.000000) scale(0.100000,-0.100000)"
fill="#000000" stroke="none">
<path d="M732 1843 l-81 -88 25 -32 c13 -17 24 -36 24 -41 0 -4 7 -32 16 -61
10 -36 19 -50 26 -43 6 6 7 16 0 28 -5 11 -13 37 -17 58 -3 22 -15 51 -26 64
l-19 25 64 71 c87 98 135 100 150 7 7 -46 18 -56 44 -40 16 10 33 3 115 -49
88 -55 103 -61 169 -67 70 -7 74 -6 98 20 24 25 100 65 125 65 7 0 19 -7 26
-16 10 -12 23 -14 52 -10 43 7 43 9 -9 -64 -28 -39 -32 -55 -35 -115 -1 -38
-4 -73 -6 -76 -1 -4 -20 -1 -40 7 -21 7 -65 13 -98 12 l-60 0 46 -8 c102 -17
154 -62 163 -141 5 -35 4 -39 -4 -19 -8 21 -9 17 -6 -19 6 -64 -47 -150 -179
-289 -59 -61 -103 -112 -98 -112 5 0 68 57 140 128 l132 128 36 -48 c35 -48
35 -48 15 -65 -12 -10 -39 -35 -61 -55 -22 -21 -43 -38 -48 -38 -4 0 -34 -52
-67 -116 -32 -63 -61 -117 -65 -120 -4 -2 -48 22 -98 53 -83 53 -90 60 -87 86
4 23 -2 32 -32 51 -43 27 -144 132 -223 232 -61 76 -89 122 -107 173 -11 31
-9 36 21 74 27 35 32 49 32 97 0 54 1 55 39 74 21 10 64 22 95 26 l56 7 -74 2
c-134 2 -214 -43 -229 -129 -22 -129 41 -253 217 -427 l66 -65 -50 27 c-27 16
-91 52 -142 82 l-91 53 -4 68 c-2 37 0 71 4 76 4 6 8 17 8 25 0 12 -4 11 -20
-4 -17 -18 -19 -28 -12 -100 l7 -80 205 -120 c187 -111 205 -124 205 -148 0
-24 14 -37 99 -92 54 -36 103 -65 110 -65 21 0 31 15 86 125 30 61 60 112 65
114 6 2 24 18 40 36 17 17 42 39 57 48 43 27 44 51 4 103 -39 51 -44 80 -20
125 25 49 29 119 8 164 -13 30 -17 60 -15 120 3 79 4 81 58 158 30 42 52 77
49 77 -3 0 -28 -5 -56 -11 -47 -10 -54 -9 -74 10 l-23 21 -54 -22 c-30 -11
-68 -34 -85 -50 -30 -28 -34 -29 -93 -22 -51 5 -78 17 -164 69 -77 48 -105 60
-115 52 -17 -14 -28 2 -36 53 -5 31 -11 39 -33 44 -16 4 -35 9 -44 12 -11 3
-43 -24 -97 -83z m15 -420 l-22 -33 -3 34 c-2 19 5 50 14 68 l18 33 7 -35 c6
-28 3 -42 -14 -67z"/>
<path d="M1229 1423 c-13 -16 -12 -17 4 -4 9 7 17 15 17 17 0 8 -8 3 -21 -13z"/>
<path d="M1240 1395 c0 -8 4 -15 10 -15 5 0 7 7 4 15 -4 8 -8 15 -10 15 -2 0
-4 -7 -4 -15z"/>
<path d="M966 1358 c3 -5 10 -6 15 -3 13 9 11 12 -6 12 -8 0 -12 -4 -9 -9z"/>
<path d="M1305 1350 c-3 -6 1 -7 9 -4 18 7 21 14 7 14 -6 0 -13 -4 -16 -10z"/>
<path d="M986 1192 c-3 -5 1 -9 9 -9 8 0 12 4 9 9 -3 4 -7 8 -9 8 -2 0 -6 -4
-9 -8z"/>
<path d="M949 1113 c-13 -16 -12 -17 4 -4 9 7 17 15 17 17 0 8 -8 3 -21 -13z"/>
<path d="M1181 1104 c0 -11 3 -14 6 -6 3 7 2 16 -1 19 -3 4 -6 -2 -5 -13z"/>
<path d="M1172 1050 c0 -14 2 -19 5 -12 2 6 2 18 0 25 -3 6 -5 1 -5 -13z"/>
<path d="M700 564 l0 -87 -62 81 c-35 44 -69 81 -75 81 -10 1 -13 -25 -13 -99
0 -120 18 -135 22 -19 l3 82 64 -82 c35 -44 68 -81 72 -81 13 0 11 197 -1 205
-6 4 -10 -25 -10 -81z"/>
<path d="M1004 640 c-33 -13 -64 -59 -64 -94 0 -39 32 -92 60 -101 29 -9 85 2
100 21 19 22 5 28 -22 10 -32 -23 -65 -20 -93 9 -42 41 -27 113 27 136 26 10
33 9 59 -10 35 -26 52 -20 23 9 -24 23 -62 32 -90 20z"/>
<path d="M1194 615 c-14 -35 -31 -76 -59 -140 -9 -21 -11 -35 -5 -35 6 0 18
16 27 35 15 32 20 35 59 35 40 0 44 -2 55 -35 7 -19 19 -35 26 -35 8 0 0 28
-23 83 -20 45 -40 92 -45 105 -12 30 -18 28 -35 -13z m50 -72 c7 -21 4 -23
-28 -23 -20 0 -36 2 -36 5 0 2 7 23 17 46 16 41 16 41 28 18 7 -13 16 -34 19
-46z"/>
<path d="M784 540 c-25 -61 -37 -100 -30 -100 7 0 18 16 25 35 12 33 15 35 57
35 42 0 46 -2 60 -35 8 -19 19 -35 24 -35 6 0 3 16 -6 38 -8 20 -27 65 -41
100 -14 34 -30 62 -37 62 -6 0 -30 -45 -52 -100z m71 34 c21 -51 20 -54 -20
-54 -19 0 -35 2 -35 5 0 9 32 85 36 85 2 0 11 -16 19 -36z"/>
<path d="M1330 540 l0 -100 45 0 c89 0 122 37 116 133 -1 10 -12 29 -26 42
-20 21 -34 25 -80 25 l-55 0 0 -100z m120 65 c27 -25 34 -68 16 -103 -17 -34
-34 -42 -82 -42 l-34 0 0 86 0 87 41 -6 c22 -3 49 -13 59 -22z"/>
<path d="M1586 632 c-10 -17 -76 -176 -76 -184 0 -22 20 -4 30 27 11 33 14 35
56 35 41 0 46 -3 61 -35 9 -19 20 -35 25 -35 11 0 12 -3 -31 101 -38 90 -53
111 -65 91z m37 -72 l15 -40 -39 0 c-21 0 -39 2 -39 4 0 13 32 76 39 76 4 0
15 -18 24 -40z"/>
<path d="M595 381 c-3 -5 -2 -12 3 -15 5 -3 9 1 9 9 0 17 -3 19 -12 6z"/>
<path d="M861 374 c0 -11 3 -14 6 -6 3 7 2 16 -1 19 -3 4 -6 -2 -5 -13z"/>
<path d="M1621 374 c0 -11 3 -14 6 -6 3 7 2 16 -1 19 -3 4 -6 -2 -5 -13z"/>
</g>
</svg>
